# xmcd
#
# Track frame offsets: 
#        150
#        13756
#        35211
#        49847
#        68049
#        83937
#        102939
#        120458
#        144249
#        159230
#        173423
#
# Disc length: 2503 seconds
#
# Revision: 0
# Processed by: cddbd v1.5.2PL0 Copyright (c) Steve Scherf et al.
# Submitted via: ExactAudioCopy v0.99pb3
#
DISCID=8609c50b
DTITLE=Glenn R. Townsend - Drivin' The Bus
DYEAR=1998
DGENRE=Blues
TTITLE0=Drivin' The Bus
TTITLE1=Ain't No Love
TTITLE2=Old Man
TTITLE3=Tulsa Blues
TTITLE4=Standin' In A Darkroom
TTITLE5=Feeling's Gone
TTITLE6=So Damn Crazy
TTITLE7=Reach Around
TTITLE8=My Little Baby
TTITLE9=Kansas City Blues Man
TTITLE10=Sad Ol' Story
EXTD=
EXTT0=
EXTT1=
EXTT2=
EXTT3=
EXTT4=
EXTT5=
EXTT6=
EXTT7=
EXTT8=
EXTT9=
EXTT10=
PLAYORDER=
